<?xml version="1.0" standalone="no"?>
<!DOCTYPE svg PUBLIC "-//W3C//DTD SVG 20010904//EN"
 "http://www.w3.org/TR/2001/REC-SVG-20010904/DTD/svg10.dtd">
<svg version="1.0" xmlns="http://www.w3.org/2000/svg"
 width="263.000000pt" height="265.000000pt" viewBox="0 0 263.000000 265.000000"
 preserveAspectRatio="xMidYMid meet">
<metadata>
Created by potrace 1.10, written by Peter Selinger 2001-2011
</metadata>
<g transform="translate(0.000000,265.000000) scale(0.100000,-0.100000)"
fill="#000000" stroke="none">
<path d="M1143 2640 c-295 -38 -554 -170 -771 -394 -176 -182 -284 -388 -339
-646 -22 -106 -24 -369 -4 -480 47 -262 168 -490 365 -686 193 -193 398 -305
661 -360 126 -27 384 -27 510 0 550 115 966 561 1035 1109 31 249 -15 527
-122 742 -180 359 -528 627 -910 700 -101 19 -327 27 -425 15z m378 -26 c477
-81 869 -423 1013 -882 44 -141 59 -258 53 -427 -8 -226 -57 -403 -159 -581
-198 -348 -530 -579 -918 -640 -188 -30 -435 -9 -617 52 -169 57 -357 176
-490 311 -589 596 -466 1571 254 2005 248 151 574 211 864 162z"/>
<path d="M1139 2546 c-108 -16 -275 -68 -371 -117 -218 -110 -426 -318 -535
-534 -88 -174 -127 -344 -126 -550 0 -255 60 -453 201 -670 59 -90 237 -268
327 -327 305 -199 650 -255 996 -162 313 84 600 317 751 609 236 459 159 1007
-194 1381 -177 186 -393 307 -642 358 -109 23 -292 28 -407 12z m409 -30 c150
-33 277 -84 410 -169 l64 -40 -34 -12 c-18 -7 -53 -22 -78 -33 -25 -11 -83
-25 -130 -31 -64 -8 -94 -18 -123 -39 -103 -71 -130 -84 -185 -91 -31 -4 -67
-12 -79 -19 -12 -7 -41 -12 -65 -12 -66 0 -117 -18 -190 -66 -85 -57 -113 -90
-128 -153 l-12 -51 -66 0 c-66 0 -68 1 -115 46 -26 25 -61 72 -77 104 -28 56
-44 70 -79 70 -26 0 -62 -43 -81 -99 -9 -27 -30 -65 -48 -85 l-31 -36 -146 0
c-80 0 -145 2 -145 5 0 3 14 34 31 68 119 237 313 429 557 551 61 31 73 34 78
21 4 -9 -1 -22 -12 -31 -18 -14 -18 -15 1 -12 34 6 46 -22 23 -54 -22 -32 -10
-38 17 -8 14 15 21 17 32 9 7 -7 11 -20 8 -30 -4 -11 -2 -19 4 -19 6 0 11 7
11 15 0 16 9 19 34 9 12 -5 16 -21 16 -65 0 -33 4 -59 10 -59 6 0 10 26 10 59
0 52 3 60 22 67 15 4 25 1 34 -10 7 -10 15 -13 18 -7 4 5 1 13 -4 16 -8 5 -5
13 6 26 17 19 18 19 56 -18 45 -44 52 -33 8 12 -36 37 -33 69 6 59 13 -3 24
-2 24 4 0 5 -9 12 -20 15 -13 3 -18 10 -14 21 4 11 19 16 50 16 24 0 44 5 44
10 0 6 -20 10 -44 10 -31 0 -46 5 -50 16 -10 27 -7 33 22 38 52 9 288 -3 360
-18z m-404 -2 c20 -52 -6 -123 -57 -154 -61 -38 -140 -18 -177 43 -17 27 -27
67 -17 67 1 0 54 13 117 30 137 35 126 34 134 14z m984 -300 c45 -42 82 -79
82 -84 0 -10 -98 -60 -118 -60 -22 0 -88 -77 -143 -167 -48 -79 -128 -163
-155 -163 -10 0 -12 9 -7 30 3 19 1 30 -6 30 -6 0 -11 -15 -11 -34 0 -31 -5
-36 -67 -72 -36 -22 -90 -61 -120 -87 l-53 -49 6 31 c4 20 2 31 -5 31 -6 0
-11 -16 -11 -35 0 -29 -5 -37 -26 -45 -35 -14 -56 -13 -96 4 l-35 15 13 88
c12 81 12 104 -1 91 -3 -3 -11 -44 -17 -92 l-12 -86 -53 -1 c-29 -1 -58 -2
-65 -3 -15 -1 -11 253 4 272 6 7 8 15 4 19 -3 4 -13 -2 -21 -13 -10 -13 -14
-45 -15 -101 l0 -81 -31 15 c-17 9 -60 18 -95 21 l-64 5 0 41 c0 58 25 154 47
184 10 13 53 47 95 74 69 44 85 50 155 58 43 4 95 15 115 24 21 9 54 16 74 16
35 0 86 24 129 60 11 10 32 25 47 34 l26 17 -19 -61 c-21 -68 -23 -80 -11 -80
4 0 16 32 27 72 l20 72 87 13 c58 8 106 22 145 42 32 17 67 30 78 31 12 0 55
-32 103 -76z m145 -166 c25 -35 62 -94 82 -131 l38 -69 -21 -46 c-26 -59 -35
-102 -22 -102 5 0 12 12 16 28 12 54 26 92 33 92 5 0 20 -36 35 -80 159 -481
17 -987 -365 -1305 -64 -54 -83 -65 -90 -54 -18 26 -4 122 28 194 69 155 82
185 76 185 -3 0 -12 -8 -19 -17 -12 -16 -13 -15 -14 10 0 37 -21 85 -55 125
l-27 32 21 112 c19 99 21 131 6 117 -2 -3 -10 -41 -18 -84 l-14 -80 -11 41
c-16 54 -63 118 -112 152 -36 25 -39 31 -40 75 0 27 -4 46 -9 42 -5 -3 -7 -21
-4 -40 7 -41 -2 -43 -55 -16 -71 36 -225 71 -384 87 -68 6 -68 7 -70 38 l-1
31 -4 -30 -4 -30 -238 -3 c-201 -2 -240 -1 -250 12 -19 22 -5 36 36 36 23 0
45 8 59 21 21 20 26 20 119 9 77 -10 102 -10 123 0 28 13 135 54 237 89 33 12
82 24 108 27 40 4 58 14 101 53 69 63 129 103 209 142 81 38 134 91 197 194
27 44 62 93 78 108 24 23 152 94 174 96 4 1 27 -27 51 -61z m-1548 -108 c29
-53 30 -61 33 -200 2 -80 8 -149 14 -155 6 -7 8 39 6 133 -2 78 0 142 3 142 7
0 52 -49 72 -80 11 -16 17 -45 17 -82 0 -38 6 -68 19 -90 14 -23 20 -55 22
-107 2 -70 1 -75 -22 -83 -13 -5 -27 -16 -32 -24 -5 -8 -24 -14 -48 -14 -29 0
-41 -5 -46 -17 -10 -28 -24 -33 -100 -33 l-73 0 0 60 c0 37 -4 60 -11 60 -7 0
-10 -20 -7 -55 2 -42 0 -55 -11 -55 -23 0 -77 38 -104 74 -25 32 -25 36 -15
102 5 38 19 92 30 119 11 28 24 72 29 98 6 36 19 60 49 93 22 24 40 53 40 64
0 21 23 73 43 98 6 7 22 12 36 10 20 -2 33 -16 56 -58z m-240 -195 c-3 -22
-16 -67 -29 -100 -13 -33 -27 -95 -30 -137 l-7 -77 36 -40 c66 -73 72 -74 417
-86 71 -3 94 -8 130 -29 24 -13 105 -55 180 -91 206 -99 235 -145 162 -255
-42 -65 -41 -97 5 -167 35 -53 37 -71 15 -118 -11 -24 -38 -46 -97 -81 -191
-110 -297 -224 -300 -321 -1 -18 -2 -33 -4 -33 -1 0 -31 11 -65 24 -368 138
-640 441 -740 824 -28 106 -31 132 -32 277 -1 88 3 177 7 198 8 36 9 37 50 37
24 0 52 7 63 15 19 12 24 12 40 0 22 -16 74 -20 74 -5 0 6 -13 10 -30 10 -21
0 -35 8 -46 26 l-17 25 -21 -25 c-20 -24 -86 -40 -94 -23 -5 10 6 58 29 132
l18 60 147 0 146 0 -7 -40z m511 -12 l-1 -58 40 -3 c134 -8 165 -25 165 -92
l0 -40 84 0 c130 0 132 -8 15 -52 -57 -21 -128 -48 -158 -59 -47 -19 -62 -21
-130 -13 l-76 9 -5 81 c-4 52 -12 90 -23 107 -23 36 -21 47 8 47 14 0 25 5 25
10 0 6 -11 8 -25 4 -28 -7 -31 -2 -38 69 l-5 47 63 0 62 0 -1 -57z m215 -498
c167 -81 187 -94 218 -146 27 -45 26 -82 -4 -147 -34 -73 -32 -110 11 -196 53
-110 40 -134 -137 -253 -57 -39 -126 -90 -152 -113 -53 -47 -107 -132 -107
-169 0 -17 -4 -22 -16 -17 -9 3 -22 6 -30 6 -40 0 8 128 72 194 51 51 142 118
221 162 111 63 134 129 75 219 -17 27 -32 60 -32 75 0 14 16 50 35 80 57 88
43 146 -50 205 -30 19 -57 35 -60 35 -9 0 -250 121 -259 130 -7 7 3 10 26 10
23 0 86 -25 189 -75z m156 60 c376 -44 557 -149 579 -335 5 -41 15 -66 40 -99
40 -52 58 -111 50 -162 -3 -20 -22 -72 -43 -114 -37 -79 -47 -147 -31 -206 7
-25 3 -28 -90 -76 -206 -108 -336 -138 -579 -137 -115 0 -177 4 -184 11 -15
15 19 84 64 130 17 18 27 36 23 40 -16 16 -106 -113 -106 -152 0 -10 -7 -15
-17 -13 -12 3 -17 12 -15 27 8 77 88 162 262 279 167 112 189 157 131 270 -44
85 -46 102 -18 158 34 68 39 98 27 145 -16 58 -60 101 -147 143 -43 20 -109
52 -148 71 l-70 34 75 0 c41 1 130 -6 197 -14z"/>
<path d="M1280 2470 c0 -5 18 -10 41 -10 24 0 38 4 34 10 -3 6 -22 10 -41 10
-19 0 -34 -4 -34 -10z"/>
<path d="M1210 2402 c0 -11 24 -22 48 -22 21 0 5 15 -25 25 -13 3 -23 2 -23
-3z"/>
<path d="M791 2377 c-19 -11 -29 -23 -23 -25 14 -4 72 26 72 38 0 14 -10 11
-49 -13z"/>
<path d="M811 2259 c-18 -22 -30 -43 -26 -47 6 -6 74 66 75 81 0 16 -17 4 -49
-34z"/>
<path d="M1110 2280 c0 -16 43 -100 52 -100 13 0 9 17 -8 34 -8 9 -13 16 -9
16 3 0 -1 14 -10 30 -16 30 -25 38 -25 20z"/>
<path d="M1919 2121 c-46 -40 -104 -132 -96 -154 2 -6 16 11 30 39 27 53 73
107 117 136 18 12 20 17 9 17 -9 1 -36 -17 -60 -38z"/>
<path d="M1647 2003 c-11 -19 -17 -83 -8 -83 5 0 12 18 16 41 7 38 3 60 -8 42z"/>
<path d="M1312 1946 c-20 -19 -34 -37 -31 -41 4 -3 20 8 37 25 17 16 38 30 46
30 9 0 16 5 16 10 0 20 -31 9 -68 -24z"/>
<path d="M1784 1865 c-6 -23 0 -45 10 -34 10 12 15 59 6 59 -5 0 -12 -11 -16
-25z"/>
<path d="M1536 1803 c-4 -43 -9 -95 -11 -115 -3 -20 -1 -39 4 -42 5 -4 12 29
15 71 4 43 9 97 12 121 3 24 1 42 -5 42 -5 0 -12 -35 -15 -77z"/>
<path d="M2212 1926 c-21 -24 -35 -56 -45 -103 -26 -113 -30 -143 -20 -143 5
0 15 30 22 68 18 100 40 159 67 181 25 20 30 31 15 31 -5 0 -22 -15 -39 -34z"/>
<path d="M1901 1709 c-13 -11 -31 -24 -40 -29 -9 -5 -13 -11 -9 -15 9 -9 89
45 82 56 -7 11 -5 12 -33 -12z"/>
<path d="M2126 1634 c-3 -9 -6 -25 -6 -37 0 -27 15 -11 24 26 7 29 -8 38 -18
11z"/>
<path d="M1723 1617 c-18 -7 -38 -18 -45 -26 -11 -12 -10 -13 7 -7 11 4 37 13
58 19 20 7 37 15 37 19 0 11 -19 9 -57 -5z"/>
<path d="M1604 1535 c-28 -30 -53 -46 -78 -50 -36 -7 -51 -25 -21 -25 36 0
155 86 155 112 0 16 -16 6 -56 -37z"/>
<path d="M1866 1538 c-10 -37 -19 -194 -11 -186 5 5 9 20 11 35 9 91 16 146
21 159 3 8 1 14 -5 14 -5 0 -13 -10 -16 -22z"/>
<path d="M2096 1489 c-6 -19 -26 -107 -26 -113 0 -3 4 -6 9 -6 10 0 36 118 28
127 -4 3 -8 0 -11 -8z"/>
<path d="M1709 1470 c-39 -11 -79 -40 -79 -57 0 -11 8 -8 30 10 16 14 43 28
60 32 16 4 30 11 30 16 0 10 -5 10 -41 -1z"/>
<path d="M2406 1448 c-16 -55 -58 -290 -52 -295 3 -3 7 -4 9 -2 10 13 63 309
55 309 -5 0 -10 -6 -12 -12z"/>
<path d="M2177 1309 c-10 -39 -11 -59 -4 -56 8 2 28 66 37 115 0 1 -4 2 -9 2
-5 0 -15 -27 -24 -61z"/>
<path d="M2138 1145 c-8 -36 -12 -68 -7 -71 5 -2 11 8 15 23 3 15 10 41 15 57
11 36 12 56 1 56 -5 0 -15 -29 -24 -65z"/>
<path d="M2310 1047 c0 -7 -16 -32 -36 -55 -24 -29 -31 -42 -20 -42 8 0 29 20
46 44 31 46 37 66 20 66 -5 0 -10 -6 -10 -13z"/>
<path d="M2168 892 c-65 -67 -93 -112 -70 -112 5 0 13 10 19 23 6 12 32 46 58
75 60 66 55 78 -7 14z"/>
<path d="M540 1686 c0 -25 5 -46 10 -46 6 0 10 18 10 39 0 22 -4 43 -10 46 -6
4 -10 -12 -10 -39z"/>
<path d="M670 1580 c0 -47 4 -80 10 -80 6 0 10 33 10 80 0 47 -4 80 -10 80 -6
0 -10 -33 -10 -80z"/>
<path d="M345 1710 c-4 -6 12 -10 39 -10 25 0 46 5 46 10 0 6 -18 10 -39 10
-22 0 -43 -4 -46 -10z"/>
<path d="M190 1388 c0 -5 28 -8 62 -8 34 0 59 3 55 6 -9 9 -117 10 -117 2z"/>
<path d="M340 1290 c0 -5 18 -10 40 -10 22 0 40 5 40 10 0 6 -18 10 -40 10
-22 0 -40 -4 -40 -10z"/>
<path d="M579 1167 c-26 -32 -26 -32 -128 -34 -135 -2 -144 -13 -12 -13 97 0
137 9 153 34 4 7 15 3 31 -12 31 -29 83 -29 114 0 l23 21 23 -21 c20 -19 35
-22 106 -22 49 0 80 4 76 9 -3 6 -33 10 -68 9 -95 0 -96 0 -116 32 l-18 31
-17 -26 c-34 -52 -101 -52 -128 -1 l-13 25 -26 -32z"/>
<path d="M295 990 c3 -5 26 -10 51 -10 24 0 44 5 44 10 0 6 -23 10 -51 10 -31
0 -48 -4 -44 -10z"/>
<path d="M515 990 c4 -6 58 -10 131 -10 76 0 124 4 124 10 0 6 -50 10 -131 10
-84 0 -128 -4 -124 -10z"/>
<path d="M900 990 c0 -5 11 -10 24 -10 14 0 28 5 31 10 4 6 -7 10 -24 10 -17
0 -31 -4 -31 -10z"/>
<path d="M1070 990 c0 -6 45 -10 115 -10 70 0 115 4 115 10 0 6 -45 10 -115
10 -70 0 -115 -4 -115 -10z"/>
<path d="M992 850 c-11 -18 -23 -20 -107 -20 -57 0 -95 -4 -95 -10 0 -6 38
-10 94 -10 70 0 97 4 106 15 11 13 15 13 33 0 24 -17 137 -21 137 -5 0 6 -27
10 -60 10 -49 0 -62 4 -72 20 -7 11 -15 20 -18 20 -3 0 -11 -9 -18 -20z"/>
<path d="M480 820 c0 -6 42 -10 105 -10 63 0 105 4 105 10 0 6 -42 10 -105 10
-63 0 -105 -4 -105 -10z"/>
<path d="M635 700 c3 -5 35 -10 71 -10 36 0 64 4 64 10 0 6 -30 10 -71 10 -44
0 -68 -4 -64 -10z"/>
<path d="M890 700 c0 -5 18 -10 40 -10 22 0 40 5 40 10 0 6 -18 10 -40 10 -22
0 -40 -4 -40 -10z"/>
<path d="M1060 700 c0 -6 35 -10 85 -10 50 0 85 4 85 10 0 6 -35 10 -85 10
-50 0 -85 -4 -85 -10z"/>
<path d="M691 570 c-19 -17 -38 -20 -109 -20 -47 0 -82 -3 -78 -7 10 -10 177
-3 199 9 12 6 23 6 32 -2 16 -14 104 -20 111 -8 3 4 -18 8 -45 8 -40 0 -54 4
-63 20 -16 24 -17 24 -47 0z"/>
<path d="M930 542 c0 -4 29 -7 65 -7 36 0 65 3 65 8 0 4 -29 7 -65 7 -36 0
-65 -3 -65 -8z"/>
<path d="M720 388 c0 -4 48 -8 107 -8 58 0 103 3 100 7 -10 9 -207 11 -207 1z"/>
<path d="M1000 1550 c0 -6 28 -10 65 -10 37 0 65 4 65 10 0 6 -28 10 -65 10
-37 0 -65 -4 -65 -10z"/>
<path d="M1210 1286 c0 -4 68 -46 76 -46 16 0 -2 19 -31 33 -37 18 -45 20 -45
13z"/>
<path d="M1380 1212 c0 -4 14 -16 31 -26 36 -21 89 -100 89 -132 0 -13 5 -26
10 -29 16 -10 11 37 -9 81 -24 52 -121 138 -121 106z"/>
<path d="M1504 684 c3 -9 6 -24 6 -35 0 -10 5 -19 10 -19 11 0 13 30 4 54 -3
9 -11 16 -16 16 -6 0 -7 -7 -4 -16z"/>
<path d="M1486 575 c-10 -19 -37 -47 -58 -62 -44 -30 -36 -45 8 -17 27 18 84
89 84 106 0 19 -17 6 -34 -27z"/>
<path d="M1328 451 c-27 -15 -37 -31 -20 -31 4 0 20 9 35 19 36 23 22 34 -15
12z"/>
</g>
</svg>
